<?xml version="1.0" encoding="UTF-8" standalone="no"?>
<!DOCTYPE svg PUBLIC "-//W3C//DTD SVG 1.1//EN"
 "http://www.w3.org/Graphics/SVG/1.1/DTD/svg11.dtd">
<!-- Generated by graphviz version 2.47.0 (20210316.0004)
 -->
<!-- Title: dependencies Pages: 1 -->
<svg width="504pt" height="284pt"
 viewBox="0.00 0.00 504.00 284.00" xmlns="http://www.w3.org/2000/svg" xmlns:xlink="http://www.w3.org/1999/xlink">
<g id="graph0" class="graph" transform="scale(1 1) rotate(0) translate(4 280)">
<title>dependencies</title>
<polygon fill="white" stroke="transparent" points="-4,4 -4,-280 500,-280 500,4 -4,4"/>
<text text-anchor="start" x="227.01" y="-42.4" font-family="Times-12" font-weight="bold" font-size="14.00">Legend</text>
<polygon fill="#ffffb3" stroke="transparent" points="14,-10 14,-30 34,-30 34,-10 14,-10"/>
<text text-anchor="start" x="37.63" y="-15.4" font-family="Times-12" font-size="14.00"> &#160;Declarations</text>
<polygon fill="#8dd3c7" stroke="transparent" points="127,-10 127,-30 147,-30 147,-10 127,-10"/>
<text text-anchor="start" x="150.73" y="-15.4" font-family="Times-12" font-size="14.00"> &#160;Module</text>
<polygon fill="#80b1d3" stroke="transparent" points="213,-10 213,-30 233,-30 233,-10 213,-10"/>
<text text-anchor="start" x="236.78" y="-15.4" font-family="Times-12" font-size="14.00"> &#160;Bootstrap</text>
<polygon fill="#fdb462" stroke="transparent" points="310,-10 310,-30 330,-30 330,-10 310,-10"/>
<text text-anchor="start" x="333.67" y="-15.4" font-family="Times-12" font-size="14.00"> &#160;Providers</text>
<polygon fill="#fb8072" stroke="transparent" points="406,-10 406,-30 426,-30 426,-10 406,-10"/>
<text text-anchor="start" x="429.73" y="-15.4" font-family="Times-12" font-size="14.00"> &#160;Exports</text>
<g id="clust1" class="cluster">
<title>cluster_PilotoModule</title>
<polygon fill="none" stroke="black" stroke-dasharray="1,5" points="118,-70 118,-268 378,-268 378,-70 118,-70"/>
</g>
<g id="clust2" class="cluster">
<title>cluster_PilotoModule_declarations</title>
<polygon fill="none" stroke="black" points="240,-78 240,-130 370,-130 370,-78 240,-78"/>
</g>
<g id="clust4" class="cluster">
<title>cluster_PilotoModule_imports</title>
<polygon fill="none" stroke="black" points="126,-78 126,-130 232,-130 232,-78 126,-78"/>
</g>
<g id="clust5" class="cluster">
<title>cluster_PilotoModule_exports</title>
<polygon fill="none" stroke="black" points="181,-208 181,-260 315,-260 315,-208 181,-208"/>
</g>
<!-- PilotoComponent -->
<g id="node1" class="node">
<title>PilotoComponent</title>
<polygon fill="#ffffb3" stroke="black" points="362.29,-122 247.71,-122 247.71,-86 362.29,-86 362.29,-122"/>
<text text-anchor="middle" x="305" y="-99.8" font-family="Times,serif" font-size="14.00">PilotoComponent</text>
</g>
<!-- PilotoModule -->
<g id="node2" class="node">
<title>PilotoModule</title>
<polygon fill="#8dd3c7" stroke="black" points="294.5,-187 291.5,-191 270.5,-191 267.5,-187 201.5,-187 201.5,-151 294.5,-151 294.5,-187"/>
<text text-anchor="middle" x="248" y="-164.8" font-family="Times,serif" font-size="14.00">PilotoModule</text>
</g>
<!-- PilotoComponent&#45;&gt;PilotoModule -->
<g id="edge1" class="edge">
<title>PilotoComponent&#45;&gt;PilotoModule</title>
<path fill="none" stroke="black" d="M271.05,-122.11C271.05,-122.11 271.05,-140.99 271.05,-140.99"/>
<polygon fill="black" stroke="black" points="267.55,-140.99 271.05,-150.99 274.55,-140.99 267.55,-140.99"/>
</g>
<!-- PilotoComponent  -->
<g id="node4" class="node">
<title>PilotoComponent </title>
<polygon fill="#fb8072" stroke="black" points="307.29,-252 188.71,-252 188.71,-216 307.29,-216 307.29,-252"/>
<text text-anchor="middle" x="248" y="-229.8" font-family="Times,serif" font-size="14.00">PilotoComponent </text>
</g>
<!-- PilotoModule&#45;&gt;PilotoComponent  -->
<g id="edge3" class="edge">
<title>PilotoModule&#45;&gt;PilotoComponent </title>
<path fill="none" stroke="black" stroke-dasharray="5,2" d="M248,-187.11C248,-187.11 248,-205.99 248,-205.99"/>
<polygon fill="black" stroke="black" points="244.5,-205.99 248,-215.99 251.5,-205.99 244.5,-205.99"/>
</g>
<!-- NaveModule -->
<g id="node3" class="node">
<title>NaveModule</title>
<polygon fill="#8dd3c7" stroke="black" points="223.59,-122 220.59,-126 199.59,-126 196.59,-122 134.41,-122 134.41,-86 223.59,-86 223.59,-122"/>
<text text-anchor="middle" x="179" y="-99.8" font-family="Times,serif" font-size="14.00">NaveModule</text>
</g>
<!-- NaveModule&#45;&gt;PilotoModule -->
<g id="edge2" class="edge">
<title>NaveModule&#45;&gt;PilotoModule</title>
<path fill="none" stroke="black" d="M212.52,-122.11C212.52,-122.11 212.52,-140.99 212.52,-140.99"/>
<polygon fill="black" stroke="black" points="209.02,-140.99 212.52,-150.99 216.02,-140.99 209.02,-140.99"/>
</g>
</g>
</svg>
