<?xml version="1.0" encoding="UTF-8" standalone="no"?>
<!DOCTYPE svg PUBLIC "-//W3C//DTD SVG 1.1//EN"
 "http://www.w3.org/Graphics/SVG/1.1/DTD/svg11.dtd">
<!-- Generated by graphviz version 2.47.0 (20210316.0004)
 -->
<!-- Title: dependencies Pages: 1 -->
<svg width="533pt" height="284pt"
 viewBox="0.00 0.00 533.00 284.00" xmlns="http://www.w3.org/2000/svg" xmlns:xlink="http://www.w3.org/1999/xlink">
<g id="graph0" class="graph" transform="scale(1 1) rotate(0) translate(4 280)">
<title>dependencies</title>
<polygon fill="white" stroke="transparent" points="-4,4 -4,-280 529,-280 529,4 -4,4"/>
<text text-anchor="start" x="241.51" y="-42.4" font-family="Times-12" font-weight="bold" font-size="14.00">Legend</text>
<polygon fill="#ffffb3" stroke="transparent" points="28.5,-10 28.5,-30 48.5,-30 48.5,-10 28.5,-10"/>
<text text-anchor="start" x="52.13" y="-15.4" font-family="Times-12" font-size="14.00"> &#160;Declarations</text>
<polygon fill="#8dd3c7" stroke="transparent" points="141.5,-10 141.5,-30 161.5,-30 161.5,-10 141.5,-10"/>
<text text-anchor="start" x="165.23" y="-15.4" font-family="Times-12" font-size="14.00"> &#160;Module</text>
<polygon fill="#80b1d3" stroke="transparent" points="227.5,-10 227.5,-30 247.5,-30 247.5,-10 227.5,-10"/>
<text text-anchor="start" x="251.28" y="-15.4" font-family="Times-12" font-size="14.00"> &#160;Bootstrap</text>
<polygon fill="#fdb462" stroke="transparent" points="324.5,-10 324.5,-30 344.5,-30 344.5,-10 324.5,-10"/>
<text text-anchor="start" x="348.17" y="-15.4" font-family="Times-12" font-size="14.00"> &#160;Providers</text>
<polygon fill="#fb8072" stroke="transparent" points="420.5,-10 420.5,-30 440.5,-30 440.5,-10 420.5,-10"/>
<text text-anchor="start" x="444.23" y="-15.4" font-family="Times-12" font-size="14.00"> &#160;Exports</text>
<g id="clust1" class="cluster">
<title>cluster_AppModule</title>
<polygon fill="none" stroke="black" stroke-dasharray="1,5" points="8,-70 8,-268 517,-268 517,-70 8,-70"/>
</g>
<g id="clust2" class="cluster">
<title>cluster_AppModule_declarations</title>
<polygon fill="none" stroke="black" points="387,-78 387,-130 509,-130 509,-78 387,-78"/>
</g>
<g id="clust4" class="cluster">
<title>cluster_AppModule_imports</title>
<polygon fill="none" stroke="black" points="16,-78 16,-130 379,-130 379,-78 16,-78"/>
</g>
<g id="clust6" class="cluster">
<title>cluster_AppModule_bootstrap</title>
<polygon fill="none" stroke="black" points="181,-208 181,-260 305,-260 305,-208 181,-208"/>
</g>
<!-- AppComponent -->
<g id="node1" class="node">
<title>AppComponent</title>
<polygon fill="#ffffb3" stroke="black" points="500.94,-122 395.06,-122 395.06,-86 500.94,-86 500.94,-122"/>
<text text-anchor="middle" x="448" y="-99.8" font-family="Times,serif" font-size="14.00">AppComponent</text>
</g>
<!-- AppModule -->
<g id="node2" class="node">
<title>AppModule</title>
<polygon fill="#8dd3c7" stroke="black" points="284.66,-187 281.66,-191 260.66,-191 257.66,-187 201.34,-187 201.34,-151 284.66,-151 284.66,-187"/>
<text text-anchor="middle" x="243" y="-164.8" font-family="Times,serif" font-size="14.00">AppModule</text>
</g>
<!-- AppComponent&#45;&gt;AppModule -->
<g id="edge1" class="edge">
<title>AppComponent&#45;&gt;AppModule</title>
<path fill="none" stroke="black" d="M448,-122.11C448,-141.34 448,-169 448,-169 448,-169 294.98,-169 294.98,-169"/>
<polygon fill="black" stroke="black" points="294.98,-165.5 284.98,-169 294.98,-172.5 294.98,-165.5"/>
</g>
<!-- AppComponent  -->
<g id="node6" class="node">
<title>AppComponent </title>
<polygon fill="#80b1d3" stroke="black" points="297.44,-252 188.56,-252 188.56,-216 297.44,-216 297.44,-252"/>
<text text-anchor="middle" x="243" y="-229.8" font-family="Times,serif" font-size="14.00">AppComponent </text>
</g>
<!-- AppModule&#45;&gt;AppComponent  -->
<g id="edge5" class="edge">
<title>AppModule&#45;&gt;AppComponent </title>
<path fill="none" stroke="black" stroke-dasharray="1,5" d="M243,-187.11C243,-187.11 243,-205.99 243,-205.99"/>
<polygon fill="black" stroke="black" points="239.5,-205.99 243,-215.99 246.5,-205.99 239.5,-205.99"/>
</g>
<!-- AppRoutingModule -->
<g id="node3" class="node">
<title>AppRoutingModule</title>
<polygon fill="#8dd3c7" stroke="black" points="371.27,-122 368.27,-126 347.27,-126 344.27,-122 242.73,-122 242.73,-86 371.27,-86 371.27,-122"/>
<text text-anchor="middle" x="307" y="-99.8" font-family="Times,serif" font-size="14.00">AppRoutingModule</text>
</g>
<!-- AppRoutingModule&#45;&gt;AppModule -->
<g id="edge2" class="edge">
<title>AppRoutingModule&#45;&gt;AppModule</title>
<path fill="none" stroke="black" d="M263.72,-122.11C263.72,-122.11 263.72,-140.99 263.72,-140.99"/>
<polygon fill="black" stroke="black" points="260.22,-140.99 263.72,-150.99 267.22,-140.99 260.22,-140.99"/>
</g>
<!-- NaveModule -->
<g id="node4" class="node">
<title>NaveModule</title>
<polygon fill="#8dd3c7" stroke="black" points="224.59,-122 221.59,-126 200.59,-126 197.59,-122 135.41,-122 135.41,-86 224.59,-86 224.59,-122"/>
<text text-anchor="middle" x="180" y="-99.8" font-family="Times,serif" font-size="14.00">NaveModule</text>
</g>
<!-- NaveModule&#45;&gt;AppModule -->
<g id="edge3" class="edge">
<title>NaveModule&#45;&gt;AppModule</title>
<path fill="none" stroke="black" d="M212.86,-122.11C212.86,-122.11 212.86,-140.99 212.86,-140.99"/>
<polygon fill="black" stroke="black" points="209.36,-140.99 212.86,-150.99 216.36,-140.99 209.36,-140.99"/>
</g>
<!-- PilotoModule -->
<g id="node5" class="node">
<title>PilotoModule</title>
<polygon fill="#8dd3c7" stroke="black" points="117.5,-122 114.5,-126 93.5,-126 90.5,-122 24.5,-122 24.5,-86 117.5,-86 117.5,-122"/>
<text text-anchor="middle" x="71" y="-99.8" font-family="Times,serif" font-size="14.00">PilotoModule</text>
</g>
<!-- PilotoModule&#45;&gt;AppModule -->
<g id="edge4" class="edge">
<title>PilotoModule&#45;&gt;AppModule</title>
<path fill="none" stroke="black" d="M71,-122.11C71,-141.34 71,-169 71,-169 71,-169 190.92,-169 190.92,-169"/>
<polygon fill="black" stroke="black" points="190.92,-172.5 200.92,-169 190.92,-165.5 190.92,-172.5"/>
</g>
</g>
</svg>
