<?xml version="1.0" encoding="UTF-8"?>
<svg version="1.1" xmlns="http://www.w3.org/2000/svg" width="1920" height="1920">
<path d="M0 0 C3.24936481 0.00316086 6.49781729 -0.02037688 9.74707031 -0.0456543 C21.51316963 -0.08181501 32.43484057 0.51950041 43.88769531 3.31567383 C44.79970703 3.52506592 45.71171875 3.73445801 46.65136719 3.95019531 C48.93036158 4.49129605 51.18998739 5.07627317 53.45019531 5.69067383 C54.62908325 6.00657471 54.62908325 6.00657471 55.83178711 6.32885742 C75.06777616 11.57485949 92.72013192 19.10683551 107.88769531 32.31567383 C109.11746094 33.36368164 109.11746094 33.36368164 110.37207031 34.43286133 C136.37120831 57.12155008 151.29268012 89.44950697 153.64550781 123.86254883 C155.58338042 161.74300754 150.07308694 196.53153709 138.40844727 232.45117188 C136.41925828 238.57883233 134.60857354 244.71122505 133.00488281 250.95239258 C131.69597759 254.89283803 130.01233108 258.56551773 128.265625 262.32910156 C126.8941372 265.30171146 125.57663632 268.29260638 124.27441406 271.29614258 C119.65553745 281.925828 114.99537547 292.4881388 109.69238281 302.79614258 C108.54458119 305.03460418 107.42175668 307.28618419 106.33300781 309.55395508 C92.2393535 338.82808779 73.82466766 366.19909466 54.88378906 392.52270508 C51.96261667 396.01234063 51.96261667 396.01234063 50.99316406 400.17504883 C52.23402451 403.14444414 54.08027235 405.14483676 56.20019531 407.56567383 C60.27326327 412.30435336 64.1047935 417.1707003 67.82519531 422.19067383 C71.65511591 427.34937995 75.52846019 432.46250203 79.51269531 437.50317383 C83.34991073 442.35784304 87.14934815 447.23823656 90.91430664 452.14941406 C94.48729374 456.80563018 98.09230252 461.4364744 101.70019531 466.06567383 C106.45550261 472.1708203 111.18705968 478.29332114 115.88769531 484.44067383 C116.40307861 485.11453125 116.91846191 485.78838867 117.44946289 486.48266602 C118.43483758 487.77341549 119.41822135 489.06568778 120.39941406 490.35961914 C121.45725353 491.74994227 122.52323115 493.13408983 123.59472656 494.51391602 C124.14515625 495.22966797 124.69558594 495.94541992 125.26269531 496.68286133 C125.76542969 497.33109863 126.26816406 497.97933594 126.78613281 498.6472168 C127.88769531 500.31567383 127.88769531 500.31567383 127.88769531 502.31567383 C121.23607372 502.62172684 114.58628315 502.83078158 107.92919922 502.97485352 C105.66874372 503.0349428 103.40874969 503.11664736 101.14990234 503.22094727 C81.34170267 504.11218519 81.34170267 504.11218519 76.26660156 499.78881836 C73.62346118 496.92963823 71.76634332 493.72069033 69.88769531 490.31567383 C68.49589921 488.42213929 67.08229234 486.54424036 65.63769531 484.69067383 C64.909375 483.70711914 64.18105469 482.72356445 63.43066406 481.71020508 C60.33466526 477.54991738 57.13977058 473.46686981 53.95019531 469.37817383 C49.78486658 464.03866578 45.63052398 458.69190834 41.51269531 453.31567383 C37.92583047 448.64152211 34.28128585 444.02005626 30.57910156 439.43676758 C28.97450434 437.42453596 27.42053404 435.38289669 25.88769531 433.31567383 C21.5577822 434.89204882 19.15530879 438.24303925 16.32519531 441.69067383 C15.25924112 442.96297886 14.19149569 444.23378508 13.12207031 445.50317383 C12.58388672 446.14254883 12.04570313 446.78192383 11.49121094 447.44067383 C9.08603392 450.25306109 6.59029453 452.97670222 4.07519531 455.69067383 C1.13843479 458.86474313 -1.78067299 462.04685433 -4.61230469 465.31567383 C-14.52592417 476.70123153 -25.05296702 487.4133917 -35.73803711 498.07177734 C-38.3086178 500.63696846 -40.87377061 503.20750114 -43.43847656 505.77856445 C-45.09375477 507.43318227 -46.74934294 509.08749007 -48.40527344 510.74145508 C-49.16067917 511.49888504 -49.9160849 512.256315 -50.69438171 513.03669739 C-55.34176372 517.66386454 -60.14009678 522.04153077 -65.11230469 526.31567383 C-66.71998841 527.770129 -68.32470183 529.22788278 -69.92480469 530.69067383 C-74.2986644 534.6425532 -78.8220259 538.36842748 -83.40527344 542.07348633 C-85.9853406 544.21051165 -88.45944953 546.42303128 -90.92480469 548.69067383 C-95.89169005 553.21100956 -101.11730259 557.32507876 -106.42089844 561.43676758 C-108.87343777 563.33954393 -111.30140115 565.26768864 -113.70996094 567.22583008 C-122.51061414 574.3785805 -131.56899268 581.08282096 -140.80517578 587.66137695 C-143.11365852 589.31664458 -145.40595945 590.99211724 -147.69433594 592.67504883 C-155.98850468 598.76224281 -164.37500437 604.51213958 -173.15527344 609.87426758 C-176.47002005 611.90125918 -179.71632359 614.01675707 -182.95532227 616.16210938 C-202.47890119 629.04724923 -223.076641 640.12612083 -243.92285156 650.69750977 C-246.96472371 652.24079885 -249.99981928 653.79674428 -253.03417969 655.35473633 C-263.83466159 660.86552899 -274.74208074 665.86268032 -285.97509766 670.42456055 C-288.21659123 671.35915634 -290.42732571 672.34928316 -292.63964844 673.35083008 C-299.49112777 676.41400892 -306.58220526 678.75415006 -313.68701172 681.15551758 C-316.1669401 681.99547621 -318.64412711 682.84179246 -321.11962891 683.69458008 C-348.20755642 693.00274519 -375.44657171 701.13107701 -404.19042969 703.02661133 C-407.88312235 703.21242608 -407.88312235 703.21242608 -410.54167175 703.82168579 C-413.13710664 704.32043992 -415.5240048 704.46897208 -418.16430664 704.50854492 C-419.14756424 704.52460785 -420.13082184 704.54067078 -421.14387512 704.55722046 C-425.70096708 704.60254092 -430.25791887 704.6428722 -434.81518555 704.66577148 C-437.1876825 704.68213907 -439.56013427 704.70916531 -441.93237305 704.74780273 C-479.86276393 705.36074378 -519.14549033 695.13234823 -547.15917969 668.23754883 C-555.3081032 660.23933196 -562.25449507 652.19203358 -568.11230469 642.31567383 C-568.54929687 641.68790039 -568.98628906 641.06012695 -569.43652344 640.41333008 C-574.07275814 633.72954692 -576.47902911 625.94321389 -579.11230469 618.31567383 C-579.34481934 617.65470703 -579.57733398 616.99374023 -579.81689453 616.31274414 C-586.07726731 598.34274068 -587.56015437 581.12251649 -587.29980469 562.19067383 C-587.28470603 560.24927815 -587.27102693 558.3078709 -587.25878906 556.36645508 C-587.22625036 551.68256695 -587.17476524 546.99925453 -587.11230469 542.31567383 C-585.44553563 545.28598007 -584.75667132 547.75736338 -584.36621094 551.13208008 C-584.25301514 552.05537109 -584.13981934 552.97866211 -584.02319336 553.92993164 C-583.85074097 555.38931152 -583.85074097 555.38931152 -583.67480469 556.87817383 C-582.68402522 564.58823951 -581.55143224 571.91595776 -579.11230469 579.31567383 C-578.70850943 580.67852586 -578.30631502 582.0418527 -577.90527344 583.40551758 C-569.05429498 612.61973754 -549.71436901 635.79251141 -522.98730469 650.50317383 C-505.29233317 659.73543306 -486.68017992 663.23834947 -467.11230469 666.31567383 C-465.67467773 666.58613525 -465.67467773 666.58613525 -464.20800781 666.86206055 C-446.60523257 669.44139465 -426.26106908 668.34684478 -408.86865234 664.8503418 C-405.60849345 664.21794605 -402.33759488 663.67600054 -399.06152344 663.13208008 C-384.13094943 660.58352754 -369.51944986 657.31358497 -354.92480469 653.25317383 C-354.17416748 653.04570526 -353.42353027 652.83823669 -352.65014648 652.6244812 C-343.25031514 650.00866354 -334.17509849 646.95482665 -325.11230469 643.31567383 C-323.00966678 642.51995573 -320.90566067 641.72783585 -318.79980469 640.94067383 C-313.06858894 638.74116367 -307.45627168 636.31819924 -301.84570312 633.83178711 C-298.27255436 632.25052644 -294.69475443 630.7264268 -291.04980469 629.31567383 C-278.93054201 624.54318151 -267.34196652 618.50144796 -255.86230469 612.37817383 C-255.17831604 612.01428558 -254.49432739 611.65039734 -253.78961182 611.27548218 C-226.22584796 596.58252639 -199.42045419 580.41546612 -174.26367188 561.8815918 C-171.39654461 559.79469277 -168.48666584 557.77241051 -165.57470703 555.7487793 C-157.3545113 550.03030109 -149.48697445 543.97649527 -141.73583984 537.6394043 C-139.45960443 535.78350228 -137.16093712 533.95622009 -134.86230469 532.12817383 C-133.27795255 530.85861087 -131.69461615 529.58777926 -130.11230469 528.31567383 C-129.27828125 527.64536133 -128.44425781 526.97504883 -127.58496094 526.28442383 C-123.39024656 522.88430292 -119.24692155 519.4489828 -115.18652344 515.88989258 C-114.51194092 515.29909912 -113.8373584 514.70830566 -113.14233398 514.09960938 C-111.80796515 512.92700167 -110.47727449 511.75019267 -109.15063477 510.56884766 C-108.53986084 510.03155029 -107.92908691 509.49425293 -107.29980469 508.94067383 C-106.75710938 508.45856445 -106.21441406 507.97645508 -105.65527344 507.47973633 C-104.11230469 506.31567383 -104.11230469 506.31567383 -101.11230469 505.31567383 C-101.11230469 504.65567383 -101.11230469 503.99567383 -101.11230469 503.31567383 C-121.40730469 502.82067383 -121.40730469 502.82067383 -142.11230469 502.31567383 C-143.63855469 499.07754883 -145.16480469 495.83942383 -146.73730469 492.50317383 C-151.57598501 482.32378349 -156.68804816 472.30430989 -161.90869141 462.31640625 C-165.6340166 455.18479234 -169.28690056 448.02356028 -172.86230469 440.81567383 C-177.47588728 431.51980112 -182.26076107 422.32278328 -187.1418457 413.16479492 C-188.15846064 411.22772788 -189.14006628 409.27533762 -190.11230469 407.31567383 C-192.97964989 407.34686793 -192.97964989 407.34686793 -196.11230469 408.31567383 C-198.37555714 411.29330425 -198.37555714 411.29330425 -200.11230469 414.31567383 C-200.77230469 414.31567383 -201.43230469 414.31567383 -202.11230469 414.31567383 C-202.52480469 413.57317383 -202.93730469 412.83067383 -203.36230469 412.06567383 C-205.46256512 408.76526457 -207.78932715 407.30946035 -211.11230469 405.31567383 C-207.11230469 401.31567383 -207.11230469 401.31567383 -205.48730469 399.75317383 C-203.88083584 398.15727652 -203.88083584 398.15727652 -202.11230469 395.31567383 C-201.45230469 395.31567383 -200.79230469 395.31567383 -200.11230469 395.31567383 C-198.75952354 397.30257114 -197.42662163 399.303126 -196.11230469 401.31567383 C-195.45230469 401.64567383 -194.79230469 401.97567383 -194.11230469 402.31567383 C-194.71547951 398.36668693 -195.94644395 395.37649709 -197.83496094 391.86645508 C-198.37314453 390.85389648 -198.91132812 389.84133789 -199.46582031 388.7980957 C-200.02978516 387.75202148 -200.59375 386.70594727 -201.17480469 385.62817383 C-202.29432954 383.54288406 -203.41040266 381.45573623 -204.52246094 379.36645508 C-205.01883057 378.44517822 -205.5152002 377.52390137 -206.02661133 376.57470703 C-207.11230469 374.31567383 -207.11230469 374.31567383 -207.11230469 372.31567383 C-207.77230469 372.31567383 -208.43230469 372.31567383 -209.11230469 372.31567383 C-209.36109375 372.97825195 -209.60988281 373.64083008 -209.86621094 374.32348633 C-211.71095912 378.75319513 -213.92531989 382.98342908 -216.10253906 387.25708008 C-217.70013902 390.41617604 -219.21422581 393.55536235 -220.60058594 396.81567383 C-222.32650097 400.8115908 -224.30907811 404.60588481 -226.36230469 408.44067383 C-230.78151264 416.7720086 -235.15173609 425.12805197 -239.48730469 433.50317383 C-239.80762665 434.1217627 -240.12794861 434.74035156 -240.45797729 435.37768555 C-245.35410737 444.84020789 -250.1524577 454.34797744 -254.8894043 463.89135742 C-258.39056343 470.92705981 -262.0009252 477.89778286 -265.72875977 484.81616211 C-268.80517953 490.57007104 -271.39287165 496.33292115 -274.11230469 502.31567383 C-288.63230469 502.31567383 -303.15230469 502.31567383 -318.11230469 502.31567383 C-316.8097531 498.40801906 -315.66898373 495.17936719 -313.86230469 491.58520508 C-313.4243457 490.71057617 -312.98638672 489.83594727 -312.53515625 488.93481445 C-312.06561523 488.00862305 -311.59607422 487.08243164 -311.11230469 486.12817383 C-310.61956055 485.14913086 -310.12681641 484.17008789 -309.61914062 483.16137695 C-306.59669537 477.1785251 -303.50730512 471.23482067 -300.36230469 465.31567383 C-296.14349471 457.3705697 -292.06298223 449.35835075 -288.02575684 441.31982422 C-287.33547992 439.94608634 -286.64383691 438.57303401 -285.95080566 437.20068359 C-284.97705383 435.27101034 -284.00873865 433.33870802 -283.04199219 431.40551758 C-282.19483643 429.71736938 -282.19483643 429.71736938 -281.33056641 427.99511719 C-279.97433913 425.50279849 -279.97433913 425.50279849 -280.11230469 423.31567383 C-281.10230469 422.98567383 -282.09230469 422.65567383 -283.11230469 422.31567383 C-282.11230469 419.31567383 -282.11230469 419.31567383 -278.86230469 417.68676758 C-274.02966223 415.05312477 -272.42114548 411.21315807 -270.11230469 406.37817383 C-269.08417965 404.32192376 -268.05547778 402.26596207 -267.02636719 400.21020508 C-266.4249316 398.99236695 -265.82370748 397.77442436 -265.22265625 396.55639648 C-261.23557001 388.50970065 -257.10443617 380.53472978 -253.01025391 372.54220581 C-251.52414086 369.63766838 -250.04209989 366.73109349 -248.56152344 363.82373047 C-243.58079756 354.04864589 -238.56055882 344.29775531 -233.42404175 334.60345459 C-230.328762 328.75799053 -227.33616654 322.8665579 -224.40527344 316.93676758 C-221.62415348 311.32424316 -218.81874135 305.72385861 -216.01602173 300.12210083 C-214.5684384 297.22854732 -213.12165731 294.33459276 -211.67480469 291.44067383 C-210.82063802 289.73234049 -209.96647135 288.02400716 -209.11230469 286.31567383 C-208.45230469 286.31567383 -207.79230469 286.31567383 -207.11230469 286.31567383 C-205.60582871 289.27075289 -204.10824104 292.23024724 -202.61230469 295.19067383 C-202.18304687 296.03243164 -201.75378906 296.87418945 -201.31152344 297.74145508 C-200.70244141 298.94995117 -200.70244141 298.94995117 -200.08105469 300.18286133 C-199.70400391 300.92648926 -199.32695313 301.67011719 -198.93847656 302.4362793 C-198.11230469 304.31567383 -198.11230469 304.31567383 -198.11230469 306.31567383 C-193.88958688 303.78204314 -191.32920306 301.74947058 -189.11230469 297.31567383 C-186.18058997 299.86499098 -186.18058997 299.86499098 -185.79980469 302.37817383 C-185.57292969 303.01754883 -185.34605469 303.65692383 -185.11230469 304.31567383 C-182.11614523 305.62023943 -182.11614523 305.62023943 -179.11230469 306.31567383 C-179.11230469 306.97567383 -179.11230469 307.63567383 -179.11230469 308.31567383 C-180.04042969 308.91379883 -180.96855469 309.51192383 -181.92480469 310.12817383 C-185.1224597 312.32264296 -186.40577329 313.90261104 -188.11230469 317.31567383 C-190.44563802 314.98234049 -192.77897135 312.64900716 -195.11230469 310.31567383 C-189.93497642 320.8150383 -184.58452369 331.21952805 -179.18164062 341.60452271 C-175.42046409 348.83606188 -171.69705934 356.08078957 -168.08666992 363.38867188 C-165.20965076 369.18453839 -162.18774166 374.90209461 -159.17480469 380.62817383 C-155.45490487 387.70618769 -151.86172514 394.81649825 -148.48730469 402.06567383 C-144.42882866 410.77710431 -140.00272248 419.25923418 -135.48193359 427.73803711 C-129.32364617 439.32791209 -123.23700858 450.95822197 -117.41845703 462.72265625 C-111.48236409 474.66953874 -105.25798712 486.47563252 -99.11230469 498.31567383 C-94.7329819 498.32074607 -94.7329819 498.32074607 -91.80395508 495.61230469 C-91.18032578 495.02034805 -90.55669647 494.42839142 -89.91416931 493.8184967 C-88.91589867 492.84063454 -88.91589867 492.84063454 -87.89746094 491.84301758 C-87.19549088 491.16955795 -86.49352081 490.49609833 -85.77027893 489.80223083 C-83.5385595 487.65239884 -81.32334319 485.48675783 -79.11230469 483.31567383 C-78.41369324 482.63160461 -77.71508179 481.9475354 -76.99530029 481.24273682 C-72.84483711 477.1701673 -68.72326033 473.0696819 -64.61791992 468.95166016 C-62.52280377 466.85110279 -60.42228159 464.75605509 -58.32128906 462.66137695 C-56.95833756 461.29776572 -55.59569572 459.9338449 -54.23339844 458.56958008 C-53.61975937 457.95796524 -53.0061203 457.3463504 -52.37388611 456.71620178 C-48.65590114 452.97830204 -45.12590871 449.12189645 -41.68540955 445.12689209 C-39.27475134 442.35134401 -36.75193659 439.68412185 -34.23730469 437.00317383 C-29.73642865 432.16434565 -25.45625212 427.2037343 -21.31542969 422.05004883 C-18.9934946 419.1682145 -16.61974762 416.3351343 -14.23730469 413.50317383 C-9.17462204 407.43735901 -4.28037172 401.25051988 0.56591797 395.01098633 C1.78321883 393.44967543 3.01263936 391.8978339 4.24316406 390.34692383 C12.61555924 379.68859831 20.22393708 368.48848638 27.88769531 357.31567383 C28.37802246 356.60620605 28.86834961 355.89673828 29.37353516 355.16577148 C39.82026229 340.0361633 48.91779032 324.02680234 57.84082031 307.96411133 C59.17207208 305.57316294 60.53470029 303.20614324 61.93457031 300.85473633 C66.97230642 292.32182672 71.05674655 283.57695869 74.95458984 274.47753906 C75.89638848 272.29553307 76.86176531 270.12534287 77.83300781 267.95629883 C84.69875211 252.51667413 90.53949027 236.96756652 95.26269531 220.75317383 C95.46743469 220.05177277 95.67217407 219.3503717 95.88311768 218.62771606 C103.26598598 193.1915848 108.26627145 168.77297456 108.26269531 142.19067383 C108.26450806 141.31694122 108.2663208 140.44320862 108.26818848 139.54299927 C108.26474294 124.87588693 107.34187815 110.76387959 103.07519531 96.62817383 C102.8102124 95.73171143 102.54522949 94.83524902 102.2722168 93.91162109 C97.720787 78.8325363 91.09075668 65.40106098 80.88769531 53.31567383 C80.22125 52.51516602 79.55480469 51.7146582 78.86816406 50.88989258 C62.58925135 32.02981893 40.20785338 19.30577005 16.07519531 13.56567383 C14.93244141 13.27563477 13.7896875 12.9855957 12.61230469 12.68676758 C-2.36001045 9.02110294 -16.9627699 7.94157295 -32.29980469 8.00317383 C-33.10336395 8.00300262 -33.90692322 8.00283142 -34.73483276 8.00265503 C-46.15339091 8.01300705 -57.17799815 8.65602134 -68.42871094 10.75708008 C-71.73510384 11.2584737 -73.06979914 11.23526683 -76.11230469 10.31567383 C-63.64365353 6.82222164 -51.062974 4.65426354 -38.25830078 2.79003906 C-36.19392391 2.47876448 -34.13373052 2.13803055 -32.07958984 1.76513672 C-21.41542693 -0.04836981 -10.79236181 -0.02192249 0 0 Z " fill="#030303" transform="translate(1272.1123046875,637.684326171875)"/>
<path d="M0 0 C2.7097119 -0.00436073 5.41777272 -0.04078108 8.12719727 -0.07861328 C19.49843624 -0.15089398 29.95286772 1.11187375 40.98516846 3.86112976 C43.0516548 4.37269529 45.12370742 4.84784265 47.20092773 5.3137207 C56.26694206 7.38614963 64.08944114 10.94368826 72.19897461 15.36669922 C73.88677004 16.28544622 75.59122516 17.17341615 77.29711914 18.05810547 C85.35066782 22.42613187 91.5391269 28.02769945 98.04321289 34.37060547 C98.70063477 34.95455078 99.35805664 35.53849609 100.03540039 36.14013672 C113.06507591 47.99894278 119.99912639 65.69793975 124.04321289 82.37060547 C124.55754883 84.14951172 124.55754883 84.14951172 125.08227539 85.96435547 C128.02633474 96.40020813 128.22365486 106.7201151 128.23071289 117.49560547 C128.23151855 118.67469482 128.23232422 119.85378418 128.2331543 121.06860352 C128.10302476 141.78088766 128.10302476 141.78088766 125.04321289 146.37060547 C124.78797852 144.41380859 124.78797852 144.41380859 124.52758789 142.41748047 C120.93054089 115.9766519 110.88609299 93.17572555 89.36352539 76.26513672 C84.75880893 72.98305158 79.99671822 70.09017702 75.04321289 67.37060547 C74.36516602 66.91169922 73.68711914 66.45279297 72.98852539 65.97998047 C68.75609538 63.66729988 64.31940202 62.31899942 59.73071289 60.87060547 C58.83803711 60.57541016 57.94536133 60.28021484 57.02563477 59.97607422 C43.54550967 55.68135366 30.5922335 53.87822017 16.49902344 54.03442383 C14.24190109 54.05798866 11.98597438 54.05495349 9.72875977 54.04833984 C-8.34538421 54.07658967 -25.29930783 56.49386153 -42.76928711 61.05810547 C-44.54072678 61.5127068 -46.31221165 61.96713202 -48.08374023 62.42138672 C-75.20624046 69.42850887 -100.63912912 79.00055367 -125.81323242 91.32226562 C-127.85410985 92.32038951 -129.90093613 93.30525122 -131.94897461 94.28857422 C-156.07362038 105.98619759 -179.17723357 120.18641117 -200.88745117 135.88671875 C-202.99848829 137.4005087 -205.12642709 138.88699669 -207.26147461 140.36669922 C-216.24629742 146.60348555 -224.884611 153.14099895 -233.35083008 160.06445312 C-235.53222252 161.83861693 -237.74599353 163.57079322 -239.95678711 165.30810547 C-250.10237647 173.43131821 -259.7788784 182.125468 -269.31616211 190.94873047 C-272.1364108 193.53534909 -275.0072485 196.04663293 -277.94508362 198.49855042 C-280.02665158 200.33192844 -280.02665158 200.33192844 -281.69786072 202.63804626 C-284.96145393 206.67589841 -287.45334944 209.04575288 -292.618927 210.16189575 C-297.08864421 210.5257156 -301.54601072 210.38448501 -306.02319336 210.24951172 C-307.66939291 210.23269918 -309.31563788 210.2199005 -310.9618988 210.21092224 C-315.26867778 210.17676323 -319.57266981 210.08854649 -323.87835693 209.98858643 C-328.28237207 209.89606638 -332.68684327 209.85531875 -337.09155273 209.81005859 C-345.71456828 209.71389915 -354.33532983 209.5605577 -362.95678711 209.37060547 C-361.99904427 208.08684004 -361.0403686 206.80377051 -360.08129883 205.52099609 C-359.54753632 204.80641235 -359.0137738 204.09182861 -358.46383667 203.35559082 C-352.36279579 195.31970594 -344.9872799 188.30794915 -337.80493164 181.25537109 C-333.86223247 177.36417871 -330.16240411 173.35181495 -326.54663086 169.15625 C-324.51751315 166.87723173 -322.32560615 164.8660895 -320.01928711 162.87060547 C-316.85222613 160.08205859 -313.7893722 157.25548578 -310.83178711 154.24560547 C-307.03881307 150.4075664 -303.05075954 146.8825275 -298.95678711 143.37060547 C-297.82855416 142.39086032 -296.70101035 141.41032132 -295.57397461 140.42919922 C-292.33595674 137.61134011 -289.09068038 134.80203268 -285.84106445 131.99755859 C-284.65275429 130.97152868 -283.46544049 129.94434261 -282.27954102 128.91552734 C-273.14035687 120.99583988 -263.6139148 113.64554657 -253.95678711 106.37060547 C-252.82372479 105.51155988 -251.69089229 104.65221102 -250.55834961 103.79248047 C-231.27485845 89.2183252 -210.95955241 75.36565357 -189.95678711 63.37060547 C-189.09730469 62.87802246 -188.23782227 62.38543945 -187.35229492 61.87792969 C-183.54550986 59.69732511 -179.73805028 57.51808467 -175.92211914 55.35351562 C-175.06215332 54.86544434 -174.2021875 54.37737305 -173.31616211 53.87451172 C-172.54755859 53.43953369 -171.77895508 53.00455566 -170.98706055 52.55639648 C-169.2732181 51.55541852 -167.60819479 50.47154392 -165.95678711 49.37060547 C-164.63678711 49.37060547 -163.31678711 49.37060547 -161.95678711 49.37060547 C-161.95678711 48.71060547 -161.95678711 48.05060547 -161.95678711 47.37060547 C-134.37187003 33.86651877 -106.87874215 21.38843329 -77.24487305 13.02392578 C-74.70872313 12.29977542 -72.18048441 11.55109162 -69.65209961 10.80029297 C-61.31923255 8.34288107 -53.12170335 5.94605205 -44.49975586 4.72998047 C-41.99665236 4.37623927 -39.55397415 3.8960945 -37.08178711 3.37060547 C-24.63824449 0.88293672 -12.66214336 -0.0022694 0 0 Z " fill="#020202" transform="translate(1193.956787109375,676.62939453125)"/>
<path d="M0 0 C1.80084801 -0.00021904 1.80084801 -0.00021904 3.63807678 -0.0004425 C6.91655976 0.00013328 10.19499961 0.00513602 13.47347403 0.01213145 C16.90476893 0.01839816 20.33606476 0.01897141 23.7673645 0.02015686 C30.25891961 0.02326041 36.7504578 0.03146061 43.24200547 0.04150635 C50.6349883 0.05269784 58.02797195 0.05818558 65.42096114 0.06320179 C80.6232624 0.07364406 95.8255417 0.09197738 111.02783203 0.11352539 C111.02783203 12.98352539 111.02783203 25.85352539 111.02783203 39.11352539 C106.23989136 39.14325439 106.23989136 39.14325439 101.35522461 39.17358398 C90.73021044 39.24092123 80.10528864 39.31855037 69.48038197 39.40105247 C63.04757087 39.45069468 56.61477371 39.49702365 50.18188477 39.53540039 C43.95720851 39.57266325 37.73265891 39.6191257 31.50809288 39.6715889 C29.15025779 39.68991774 26.79239578 39.70510212 24.43451881 39.71686935 C13.08214262 39.77547553 1.76918673 39.95102363 -9.54760742 40.9128418 C-10.37699672 40.97611349 -11.20638601 41.03938519 -12.06090832 41.1045742 C-24.8364379 42.35021677 -35.66900834 49.64193311 -44.97216797 58.11352539 C-45.59220703 58.63043945 -46.21224609 59.14735352 -46.85107422 59.67993164 C-55.53053962 67.42737391 -60.32081481 78.6607372 -63.28076172 89.66430664 C-63.97216797 92.11352539 -63.97216797 92.11352539 -64.97216797 93.11352539 C-68.59887831 114.00653065 -63.84512918 132.53070843 -52.01513672 150.00415039 C-41.86561085 163.48663744 -26.26497753 173.00722109 -9.64700317 175.68218994 C-2.36822791 176.53653949 4.9415827 176.47702861 12.26220703 176.52758789 C13.99384444 176.54633735 15.72547307 176.56591345 17.45709229 176.58627319 C21.97455631 176.63720187 26.49204983 176.67703547 31.00964355 176.7144165 C36.45150199 176.76181109 41.89321861 176.8232377 47.33496094 176.88226318 C55.56585947 176.96999563 63.79673748 177.04010248 72.02783203 177.11352539 C72.02783203 163.58352539 72.02783203 150.05352539 72.02783203 136.11352539 C48.92783203 136.11352539 25.82783203 136.11352539 2.02783203 136.11352539 C2.02783203 123.24352539 2.02783203 110.37352539 2.02783203 97.11352539 C37.66783203 97.11352539 73.30783203 97.11352539 110.02783203 97.11352539 C110.02783203 136.38352539 110.02783203 175.65352539 110.02783203 216.11352539 C90.59908203 216.19602539 71.17033203 216.27852539 51.15283203 216.36352539 C45.05186035 216.39994141 38.95088867 216.43635742 32.66503906 216.47387695 C25.12915039 216.49194336 25.12915039 216.49194336 21.58468628 216.49530029 C19.14544747 216.50138292 16.70621955 216.51532501 14.26705933 216.53582764 C-19.28120774 216.80335896 -47.8016616 209.14201655 -72.97216797 186.11352539 C-75.8540315 183.25352729 -78.47193689 180.30963359 -80.97216797 177.11352539 C-81.47490234 176.49606445 -81.97763672 175.87860352 -82.49560547 175.24243164 C-98.78685744 154.51202899 -105.14586741 132.36376948 -105.15966797 106.36352539 C-105.17191406 105.16469727 -105.18416016 103.96586914 -105.19677734 102.73071289 C-105.20936837 94.99142761 -104.51105293 87.69896399 -102.97216797 80.11352539 C-102.31216797 80.11352539 -101.65216797 80.11352539 -100.97216797 80.11352539 C-100.89095703 78.82188477 -100.80974609 77.53024414 -100.72607422 76.19946289 C-100.1234726 70.83997652 -98.28661251 66.5380683 -95.90966797 61.73852539 C-95.50409668 60.90635498 -95.09852539 60.07418457 -94.68066406 59.21679688 C-83.27687257 36.38474224 -62.15888286 15.9481937 -37.97216797 7.11352539 C-25.08699871 2.84732511 -13.63391719 -0.04343349 0 0 Z " fill="#030303" transform="translate(397.97216796875,923.886474609375)"/>
<path d="M0 0 C0.66 0 1.32 0 2 0 C5.66666667 7.33333333 9.33333333 14.66666667 13 22 C13.48210937 22.96292969 13.96421875 23.92585937 14.4609375 24.91796875 C15.55358118 27.10602931 16.64165468 29.29637472 17.7265625 31.48828125 C21.74154771 39.5857127 25.86995528 47.61798014 30.0625 55.625 C34.46856985 64.03981515 38.79279221 72.48371498 43 81 C48.3915797 91.90653651 53.95752942 102.7148248 59.57543945 113.5065918 C64.05680204 122.13406634 68.42486153 130.8129374 72.75 139.51953125 C75.67327414 145.38940353 78.66638942 151.21293241 81.75 157 C87.07163878 166.98939417 92.09320539 177.12770164 97.11621094 187.26953125 C97.76717145 188.58093111 98.41853503 189.89213098 99.0703125 191.203125 C99.38794556 191.84237915 99.70557861 192.4816333 100.03283691 193.14025879 C102.75699316 198.58754083 105.61923513 203.95684934 108.55618286 209.29229736 C111 213.78593364 111 213.78593364 111 216 C96.48 216 81.96 216 67 216 C65.39125 212.596875 63.7825 209.19375 62.125 205.6875 C58.271965 197.59350228 54.28071833 189.6038675 50.05322266 181.69995117 C46.0622756 174.20277178 42.28061542 166.60448811 38.5 159 C34.00839274 149.96880714 29.46211344 140.97697095 24.71582031 132.07617188 C20.53914967 124.20808693 16.58724561 116.22836768 12.64013672 108.24316406 C9.6057612 102.12508901 6.45499462 96.10715726 3.09277344 90.16210938 C2 88 2 88 2 86 C-1.38068391 87.69034195 -2.40335188 91.46414446 -4 94.75 C-4.35578125 95.46671875 -4.7115625 96.1834375 -5.078125 96.921875 C-6.47606608 99.75948675 -7.83121518 102.57036592 -8.98828125 105.515625 C-10.46683984 109.14637118 -12.340486 112.54511909 -14.1875 116 C-18.55982031 124.25068967 -22.89259854 132.52123466 -27.1875 140.8125 C-27.50289734 141.42123962 -27.81829468 142.02997925 -28.14324951 142.65716553 C-33.44626787 152.90281599 -38.62742602 163.20647744 -43.76296997 173.53692627 C-47.98215207 182.02239087 -52.26490373 190.46648078 -56.76879883 198.80517578 C-59.7993287 204.45624276 -62.32488143 210.11473914 -65 216 C-79.52 216 -94.04 216 -109 216 C-107.69744841 212.09234524 -106.55667904 208.86369336 -104.75 205.26953125 C-104.09306152 203.95758789 -104.09306152 203.95758789 -103.42285156 202.61914062 C-102.95331055 201.69294922 -102.48376953 200.76675781 -102 199.8125 C-101.50725586 198.83345703 -101.01451172 197.85441406 -100.50683594 196.84570312 C-97.10104274 190.10402397 -93.59979177 183.41735937 -90.05273438 176.74926758 C-86.07513783 169.22941407 -82.28836851 161.61619552 -78.5 154 C-74.02824035 145.01000793 -69.50190331 136.05975638 -64.77734375 127.19921875 C-61.0611539 120.19468986 -57.5300195 113.09949893 -54 106 C-50.10354923 98.16354241 -46.18052612 90.34803215 -42.0625 82.625 C-37.37898933 73.83948838 -32.94804148 64.93196002 -28.51452637 56.01879883 C-24.33018831 47.61052494 -20.07562913 39.2487182 -15.65869141 30.9597168 C-10.23602494 20.74410552 -5.13733113 10.36112692 0 0 Z " fill="#030303" transform="translate(636,924)"/>
<path d="M0 0 C6.83088378 -0.2799079 13.66028174 -0.47192973 20.49560547 -0.60424805 C22.81810756 -0.65942244 25.14022999 -0.73438631 27.46142578 -0.82983398 C46.75917284 -1.60323276 46.75917284 -1.60323276 52.1652832 2.26464844 C54.21412964 5.09553602 55.61847381 7.79912449 57 11 C58.32964912 12.92304033 58.32964912 12.92304033 59.73046875 14.5390625 C64.65725835 20.72692226 69.51888741 26.95838348 74.3125 33.25 C79.48632539 40.03755143 84.70666344 46.78720416 89.95556641 53.5168457 C92.65065913 56.97366114 95.33924767 60.4346242 98 63.91796875 C98.45737549 64.51641602 98.91475098 65.11486328 99.38598633 65.73144531 C100.59648609 67.31819683 101.80421582 68.90706049 103.01171875 70.49609375 C104.59542868 72.49051038 106.18575283 74.22825161 108 76 C108.73863281 75.00742187 109.47726562 74.01484375 110.23828125 72.9921875 C117.0295807 63.88862034 123.95196973 54.90573793 131 46 C135.33639892 40.50040395 139.5595607 34.92356171 143.75 29.3125 C147.75463821 23.95364849 151.80357269 18.63487482 155.9375 13.375 C156.37352539 12.81981689 156.80955078 12.26463379 157.25878906 11.69262695 C158.49844684 10.12253692 159.74910329 8.56115071 161 7 C161.64936523 5.9584375 162.29873047 4.916875 162.96777344 3.84375 C164.70564081 1.78095712 165.6447147 1.0809642 168.30055237 0.47573853 C171.21435673 0.30473449 174.07073551 0.32584198 176.98828125 0.4140625 C178.04661667 0.42255219 179.10495209 0.43104187 180.19535828 0.43978882 C183.56878337 0.47332054 186.93979999 0.54860434 190.3125 0.625 C192.60217897 0.65509967 194.89189549 0.68247546 197.18164062 0.70703125 C202.78857929 0.77311078 208.39411758 0.87345767 214 1 C212.28203695 4.57956532 210.19866893 7.48713617 207.75 10.625 C207.1000708 11.46164185 207.1000708 11.46164185 206.43701172 12.31518555 C204.96158312 14.21293819 203.48109423 16.10666633 202 18 C199.70677209 20.9362844 197.41528242 23.87391761 195.125 26.8125 C194.53001709 27.57546387 193.93503418 28.33842773 193.32202148 29.12451172 C188.92376855 34.77796158 184.61360074 40.49208762 180.33300781 46.23486328 C176.63014425 51.19056612 172.8394629 56.06996979 169.00317383 60.92285156 C165.9711113 64.75869206 162.97329138 68.61844771 160 72.5 C156.5953134 76.94308578 153.1549868 81.35577122 149.6875 85.75 C143.36787794 93.76351788 137.16679317 101.86842754 131 110 C130.48588058 110.49259308 129.97176117 110.98518616 129.44206238 111.4927063 C127.16232741 115.45644962 127.56082759 119.41408796 127.56762695 123.90917969 C127.5574353 124.91438156 127.54724365 125.91958344 127.53674316 126.95524597 C127.50655097 130.27751189 127.49733754 133.59948977 127.48828125 136.921875 C127.47143922 139.22545332 127.45328963 141.52902242 127.43388367 143.83258057 C127.38632611 149.89553955 127.35655384 155.95846118 127.33044434 162.02154541 C127.30066796 168.2084491 127.25412758 174.39522397 127.20898438 180.58203125 C127.12288557 192.72130171 127.05711862 204.86055855 127 217 C114.13 217 101.26 217 88 217 C88.0220752 213.94266602 88.04415039 210.88533203 88.06689453 207.73535156 C88.1327296 197.60118658 88.14323815 187.46749787 88.12697029 177.33314896 C88.11879419 171.19217627 88.12889098 165.05239664 88.18164062 158.91162109 C88.2319213 152.97827727 88.23303586 147.0467235 88.20095444 141.11327362 C88.19722119 138.85678992 88.21080441 136.60020495 88.24249649 134.34394073 C88.79964149 119.48906172 88.79964149 119.48906172 82.14794922 106.79980469 C80.46191795 105.1683366 78.74836531 103.56448341 77 102 C75.78009371 100.52623445 74.58527021 99.03061419 73.4375 97.5 C72.88835937 96.78714844 72.33921875 96.07429687 71.7734375 95.33984375 C69.68973023 92.59063526 67.62607691 89.82684791 65.5625 87.0625 C62.83023661 83.40568284 60.06079267 79.79690693 57.1875 76.25 C53.74842657 71.99209956 50.45761991 67.63770977 47.1875 63.25 C42.87251261 57.46246453 38.48285767 51.74501583 34.00683594 46.08129883 C30.95622405 42.22074618 27.93387557 38.34030267 24.9375 34.4375 C24.53015625 33.90705078 24.1228125 33.37660156 23.703125 32.83007812 C22.04152203 30.66471933 20.3814451 28.49819616 18.72216797 26.33105469 C17.44059303 24.65757715 16.15792136 22.9849455 14.875 21.3125 C14.46306396 20.77423584 14.05112793 20.23597168 13.62670898 19.68139648 C10.37594683 15.44849191 7.01580593 11.31399727 3.59375 7.21875 C1.92115866 4.89024048 1.01718199 2.66762045 0 0 Z " fill="#030303" transform="translate(1412,923)"/>
<path d="M0 0 C12.87 0 25.74 0 39 0 C39.0093457 4.58245605 39.01869141 9.16491211 39.02832031 13.88623047 C39.06210074 29.03358431 39.11745547 44.1808027 39.18390274 59.3280468 C39.22366035 68.51101844 39.25606947 77.69390478 39.27099609 86.87695312 C39.28402963 94.88375765 39.31103764 102.89037424 39.35461307 110.89707291 C39.37718971 115.13401168 39.39291297 119.37071899 39.39188385 123.60772324 C39.39113498 127.601864 39.40917601 131.59549385 39.44116783 135.58950233 C39.44963431 137.04948023 39.451439 138.50951565 39.44580269 139.96950722 C39.41199849 150.07822669 40.55269522 157.72765151 46.125 166.25 C51.8840744 171.75867986 58.65773925 176.09686938 66.76457214 176.15821838 C68.23482094 176.17290161 68.23482094 176.17290161 69.73477173 176.18788147 C71.34562149 176.19651466 71.34562149 176.19651466 72.98901367 176.20532227 C74.68679207 176.22017166 74.68679207 176.22017166 76.41886902 176.23532104 C80.16854748 176.26696598 83.91823863 176.29170541 87.66796875 176.31640625 C90.26443312 176.33697318 92.86089412 176.35796958 95.45735168 176.37937927 C101.59835846 176.42897673 107.73938325 176.47423509 113.88043815 176.51740164 C120.87194113 176.5667875 127.86339727 176.62170062 134.85485494 176.67708123 C149.23652745 176.79087706 163.61824628 176.89699165 178 177 C178 189.87 178 202.74 178 216 C173.00488281 216.04898437 168.00976562 216.09796875 162.86328125 216.1484375 C159.69594346 216.18382931 156.52863279 216.21979239 153.36132812 216.2578125 C148.33573313 216.31808501 143.31017601 216.37625861 138.28442383 216.421875 C134.23186274 216.45879066 130.1795096 216.50516754 126.12712669 216.55806351 C124.58224325 216.57657412 123.03731529 216.59169437 121.49236488 216.60334396 C119.32583009 216.62026376 117.15976807 216.64931171 114.9934082 216.68115234 C113.14474907 216.70113785 113.14474907 216.70113785 111.25874329 216.7215271 C108.04289816 216.99633418 105.8247445 217.45209845 103 219 C101.62810173 222.02982306 101.62810173 222.02982306 101 225 C100.34 225 99.68 225 99 225 C98.38125 224.05125 97.7625 223.1025 97.125 222.125 C94.97275978 218.95994085 94.43485875 218.23615463 91 217 C87.75733786 216.6651454 87.75733786 216.6651454 84.14453125 216.65625 C83.15292244 216.6343158 83.15292244 216.6343158 82.14128113 216.61193848 C80.03174892 216.56560209 77.92230468 216.53135642 75.8125 216.5 C55.71409234 216.19748836 36.63818322 211.98821736 21.375 197.875 C8.52923339 184.10285599 -0.135744 166.28640199 -0.12025452 147.31178284 C-0.12162918 146.00638046 -0.12300385 144.70097809 -0.12442017 143.35601807 C-0.12088191 141.92687965 -0.11724712 140.49774147 -0.11352539 139.06860352 C-0.11324305 137.55034894 -0.11340217 136.03209422 -0.1139679 134.51383972 C-0.11425404 130.40693515 -0.10838691 126.30005996 -0.10139394 122.1931622 C-0.09512991 117.89569833 -0.09455419 113.59823373 -0.09336853 109.30076599 C-0.0902642 101.16948654 -0.08206293 93.03822059 -0.07201904 84.90694708 C-0.06083 75.64698697 -0.05534042 66.3870262 -0.05032361 57.12706101 C-0.03987956 38.08469814 -0.02154525 19.04235377 0 0 Z " fill="#020202" transform="translate(757,924)"/>
<path d="M0 0 C0.66 0 1.32 0 2 0 C3.04296875 1.57421875 3.04296875 1.57421875 4.1875 3.6875 C6.81173179 8.11098053 9.67166826 10.284184 14 13 C12.21357898 14.88480363 10.90552436 16.04844905 8.5625 17.25 C5.04984723 19.64888482 3.92017869 22.23076034 2 26 C1.34 26 0.68 26 0 26 C-1.32 23.69 -2.64 21.38 -4 19 C-3.505 23.95 -3.505 23.95 -3 29 C-2.34 29 -1.68 29 -1 29 C-0.4121875 30.7015625 -0.4121875 30.7015625 0.1875 32.4375 C3.41316266 40.95925065 8.18495895 48.0336983 14 55 C14.66902344 55.81597656 15.33804688 56.63195313 16.02734375 57.47265625 C31.64392927 75.74377891 52.32370126 83.43126292 75 89 C75 89.33 75 89.66 75 90 C47.30755433 90.53758356 22.6576313 88.4252792 -3 77 C-3.93005859 76.61328125 -3.93005859 76.61328125 -4.87890625 76.21875 C-19.55412955 69.60111277 -33.21922013 57.38561044 -42 44 C-42.69738281 42.95714844 -43.39476562 41.91429687 -44.11328125 40.83984375 C-50.2031393 31.40838454 -58 18.50514928 -58 7 C-50.93417118 6.97468227 -43.86835402 6.95714676 -36.80249023 6.94506836 C-34.39786339 6.94003402 -31.99323962 6.93320614 -29.58862305 6.92456055 C-26.13589725 6.91245571 -22.68321186 6.90676274 -19.23046875 6.90234375 C-18.15226364 6.89718246 -17.07405853 6.89202118 -15.96318054 6.88670349 C-14.46196404 6.88659019 -14.46196404 6.88659019 -12.93041992 6.88647461 C-12.04883713 6.884254 -11.16725433 6.88203339 -10.25895691 6.87974548 C-8 7 -8 7 -5 8 C-4.66226563 7.4225 -4.32453125 6.845 -3.9765625 6.25 C-3.30753906 5.13625 -3.30753906 5.13625 -2.625 4 C-2.18414063 3.2575 -1.74328125 2.515 -1.2890625 1.75 C-0.86367188 1.1725 -0.43828125 0.595 0 0 Z " fill="#060606" transform="translate(771,1170)"/>
<path d="M0 0 C6.75649673 -0.40879644 13.50977662 -0.68704173 20.27587891 -0.87890625 C22.57168633 -0.95892877 24.86668931 -1.06780413 27.15966797 -1.20703125 C45.67987848 -2.30261569 45.67987848 -2.30261569 51.19073486 1.51934814 C54.88766368 5.20769802 57.46453755 9.40651282 59.8890686 14.00234985 C61.58675612 17.05509075 63.69238691 19.65068259 65.875 22.375 C66.67679688 23.41398438 67.47859375 24.45296875 68.3046875 25.5234375 C70.92460365 28.90608891 73.55148813 32.28331408 76.17919922 35.65991211 C77.38714044 37.21235467 78.59450315 38.76524754 79.80126953 40.31860352 C82.53901599 43.84216371 85.28171974 47.36117742 88.046875 50.86328125 C88.94796094 52.01298614 89.84900551 53.16272345 90.75 54.3125 C91.52859375 55.29863281 92.3071875 56.28476562 93.109375 57.30078125 C96.62425906 62.31893184 96.62425906 62.31893184 97 65 C95.47793614 68.1279148 93.38407018 70.76610953 91.25 73.5 C90.65614502 74.28938965 90.06229004 75.0787793 89.45043945 75.89208984 C87.65108136 78.27531684 85.82789133 80.63861888 84 83 C82.9662763 84.35587839 81.93363659 85.71258426 80.90234375 87.0703125 C78.62190303 90.06309215 76.31905362 93.03705564 74 96 C64.44356977 86.64266207 56.63615997 75.67485331 48.56054688 65.04980469 C46.32140698 62.10865661 44.06841902 59.17828723 41.8125 56.25 C39.38809741 53.10218697 36.96392325 49.95424397 34.546875 46.80078125 C30.27657799 41.23298709 25.97572176 35.69271685 21.625 30.1875 C17.00411634 24.33691843 12.50915271 18.39811131 8.05908203 12.41674805 C7.58712402 11.78293213 7.11516602 11.14911621 6.62890625 10.49609375 C6.18305176 9.89651855 5.73719727 9.29694336 5.27783203 8.67919922 C4.10834169 7.14237183 2.8828203 5.64860293 1.65234375 4.16015625 C0 2 0 2 0 0 Z " fill="#030303" transform="translate(1186,924)"/>
<path d="M0 0 C3.66983904 0.52950535 6.84059492 1.24956389 10.25 2.6875 C14.78884184 4.26655926 17.96615785 3.78146702 22.55859375 2.6171875 C26.01515714 1.74336827 29.46013179 1.39331869 33 1 C32.855625 1.68964844 32.71125 2.37929688 32.5625 3.08984375 C30.7745352 12.14141553 30.26643135 19.11590188 33 28 C33.125 30.9375 33.125 30.9375 33 33 C31.54119891 32.85892253 30.08296449 32.71197585 28.625 32.5625 C27.81289063 32.48128906 27.00078125 32.40007813 26.1640625 32.31640625 C24 32 24 32 22 31 C14.78330152 30.65080491 8.08257359 31.65778639 1 33 C1.14148989 31.3954444 1.28835686 29.79136233 1.4375 28.1875 C1.55931641 26.84751953 1.55931641 26.84751953 1.68359375 25.48046875 C2 23 2 23 3 20 C3.51372642 12.93626168 1.89864493 6.78087477 0 0 Z " fill="#0B0B0B" transform="translate(803,688)"/>
<path d="M0 0 C0.90621094 0.144375 1.81242188 0.28875 2.74609375 0.4375 C15.57514107 2.71147118 15.57514107 2.71147118 28 0 C29.66620003 -0.03943669 31.3339178 -0.04413463 33 0 C32.7834375 0.7734375 32.566875 1.546875 32.34375 2.34375 C29.90200542 11.47768344 28.90688589 18.02958578 32.34375 27.01953125 C33 29 33 29 33 32 C24.69415604 31.31237022 24.69415604 31.31237022 21.5 29.875 C15.710023 27.84850805 9.56676528 30.05810513 4 32 C2.68 32 1.36 32 0 32 C0.44742919 28.34599495 0.99609678 25.01214334 2.125 21.5 C3.13554363 17.45782546 2.81527934 15.07639668 2 11 C1.64386707 9.0211862 1.28980518 7.04199887 0.9375 5.0625 C0.62630155 3.37475949 0.31424786 1.68717539 0 0 Z " fill="#090909" transform="translate(987,579)"/>
<path d="M0 0 C0.72445312 0.144375 1.44890625 0.28875 2.1953125 0.4375 C9.92492156 1.92158494 15.46602055 2.62051459 23 0 C24.32 0 25.64 0 27 0 C26.855625 0.78375 26.71125 1.5675 26.5625 2.375 C26.376875 3.57125 26.19125 4.7675 26 6 C25.88140625 6.73863281 25.7628125 7.47726562 25.640625 8.23828125 C24.75738285 14.83105305 25.51395191 20.53998929 27 27 C26.39414062 26.84402344 25.78828125 26.68804688 25.1640625 26.52734375 C17.02803349 24.63728163 9.7201975 24.49081932 2 28 C1.01 28 0.02 28 -1 28 C-0.77183594 27.21496094 -0.54367187 26.42992187 -0.30859375 25.62109375 C1.32383849 19.65502975 2.39042694 15.14105232 1 9 C0.79584439 7.35614961 0.60891042 5.71008674 0.4375 4.0625 C0.35371094 3.29035156 0.26992188 2.51820313 0.18359375 1.72265625 C0.12300781 1.15417969 0.06242188 0.58570313 0 0 Z " fill="#0A0A0A" transform="translate(895,755)"/>
<path d="M0 0 C0.71285156 0.15597656 1.42570312 0.31195312 2.16015625 0.47265625 C7.80378969 1.61961271 12.28813028 2.1854824 18 1 C19.47764787 0.80088433 20.95692248 0.61351271 22.4375 0.4375 C24.2009375 0.2209375 24.2009375 0.2209375 26 0 C25.91621094 1.02738281 25.83242187 2.05476562 25.74609375 3.11328125 C25.13469118 11.2053166 24.88749986 18.92153743 26 27 C25.443125 26.855625 24.88625 26.71125 24.3125 26.5625 C17.03836415 24.7931156 11.06184869 23.94622759 4 27 C2.3337986 27.03937847 0.66608027 27.04420777 -1 27 C-0.855625 26.39414062 -0.71125 25.78828125 -0.5625 25.1640625 C1.33759651 16.58723798 1.50320516 8.64342968 0 0 Z " fill="#090909" transform="translate(1027,673)"/>
<path d="M0 0 C1.155 0.350625 2.31 0.70125 3.5 1.0625 C8.04432264 2.20259508 11.39859995 1.81637743 16 1 C17.99973892 0.66510396 19.99969454 0.33149538 22 0 C21.91621094 1.00160156 21.83242188 2.00320313 21.74609375 3.03515625 C21.64283088 4.37757359 21.53998879 5.72002334 21.4375 7.0625 C21.33308594 8.37347656 21.22867188 9.68445313 21.12109375 11.03515625 C21.00234381 14.92325897 21.33133784 18.19110223 22 22 C21.0821875 21.91621094 20.164375 21.83242188 19.21875 21.74609375 C12.61457959 21.1980586 6.53331426 20.82400343 0 22 C0.2475 20.515 0.2475 20.515 0.5 19 C1.41290481 12.53141734 1.07071969 6.42431814 0 0 Z " fill="#101010" transform="translate(886,683)"/>
<path d="M0 0 C-0.33 1.19625 -0.66 2.3925 -1 3.625 C-2.4919832 9.64584002 -1.97625693 14.89839418 -1 21 C-1.804375 20.835 -2.60875 20.67 -3.4375 20.5 C-9.73642195 19.61594078 -15.75429909 19.71883058 -22 21 C-21.7525 19.515 -21.7525 19.515 -21.5 18 C-20.63761547 11.90170937 -20.78773472 6.06132642 -22 0 C-20.80503906 0.14308594 -20.80503906 0.14308594 -19.5859375 0.2890625 C-12.96180542 0.98209822 -5.90987723 -1.80301339 0 0 Z " fill="#080808" transform="translate(1095,616)"/>
<path d="M0 0 C3.78877432 1.26292477 3.97387479 2.83907479 5.75 6.2109375 C7.88335843 9.26430676 10.68744375 10.40742488 14 12 C14 12.66 14 13.32 14 14 C12.390625 15.04296875 12.390625 15.04296875 10.25 16.1875 C5.82259874 18.80940074 4.16947114 21.38987383 2 26 C1.34 26 0.68 26 0 26 C-0.495 24.948125 -0.99 23.89625 -1.5 22.8125 C-3.99573274 18.36358512 -7.57977454 16.32812846 -12 14 C-10.73707523 10.21122568 -9.16092521 10.02612521 -5.7890625 8.25 C-2.73569324 6.11664157 -1.59257512 3.31255625 0 0 Z " fill="#0F0F0F" transform="translate(1022,911)"/>
<path d="M0 0 C0.66 0 1.32 0 2 0 C3.2890625 1.6796875 3.2890625 1.6796875 4.625 3.875 C5.07101562 4.59429688 5.51703125 5.31359375 5.9765625 6.0546875 C7 8 7 8 7 10 C8.98 10.66 10.96 11.32 13 12 C13 12.99 13 13.98 13 15 C11.28689952 16.21893688 9.56905626 17.43239807 7.81640625 18.59375 C5.95507985 20.03477689 4.9206496 21.32445653 3.6875 23.3125 C3.130625 24.199375 2.57375 25.08625 2 26 C1.34 26 0.68 26 0 26 C-0.495 24.948125 -0.99 23.89625 -1.5 22.8125 C-3.99573274 18.36358512 -7.57977454 16.32812846 -12 14 C-8.45070423 10.1971831 -8.45070423 10.1971831 -6 9.125 C-3.50036196 7.7189536 -2.91783748 6.46092585 -1.75 3.875 C-1.41484375 3.15054687 -1.0796875 2.42609375 -0.734375 1.6796875 C-0.49203125 1.12539062 -0.2496875 0.57109375 0 0 Z " fill="#0E0E0E" transform="translate(865,1023)"/>
<path d="M0 0 C0.66 0 1.32 0 2 0 C3.04296875 1.609375 3.04296875 1.609375 4.1875 3.75 C6.80940074 8.17740126 9.38987383 9.83052886 14 12 C14 12.66 14 13.32 14 14 C13.46890625 14.20753906 12.9378125 14.41507813 12.390625 14.62890625 C6.71653672 17.10355424 4.58975213 19.38887038 2 25 C-1 24 -1 24 -2.75 21.1875 C-5.50204146 17.28877459 -7.78473403 16.10763299 -12 14 C-10.74874616 10.24623848 -9.4347596 9.75926711 -6 8 C-5.34 8 -4.68 8 -4 8 C-3.71125 7.05125 -3.4225 6.1025 -3.125 5.125 C-2 2 -2 2 0 0 Z " fill="#0E0E0E" transform="translate(1151,825)"/>
<path d="M0 0 C0.66 0 1.32 0 2 0 C2.9590625 1.485 2.9590625 1.485 3.9375 3 C4.618125 3.99 5.29875 4.98 6 6 C6.99 6 7.98 6 9 6 C10.6875 7.375 10.6875 7.375 12 9 C12 9.66 12 10.32 12 11 C10.906875 11.391875 9.81375 11.78375 8.6875 12.1875 C5.04877046 13.71341884 3.81300048 15.46942012 2 19 C1.34 19 0.68 19 0 19 C-0.4125 18.2575 -0.825 17.515 -1.25 16.75 C-3.35026044 13.44959074 -5.67702246 11.99378652 -9 10 C-5 6 -5 6 -3.375 4.4375 C-1.76853115 2.84160269 -1.76853115 2.84160269 0 0 Z " fill="#181818" transform="translate(1070,1033)"/>
<path d="M0 0 C3 1 3 1 4.375 3.375 C6.22651147 6.36590314 7.99152602 7.29248774 11 9 C11 9.66 11 10.32 11 11 C9.6078125 11.5878125 9.6078125 11.5878125 8.1875 12.1875 C4.74078196 14.14739849 3.83913242 15.59760503 2 19 C1.34 19 0.68 19 0 19 C-0.4125 18.236875 -0.825 17.47375 -1.25 16.6875 C-3.38615181 13.40698115 -5.44579683 12.50066356 -9 11 C-9 10.34 -9 9.68 -9 9 C-4.61538462 6 -4.61538462 6 -2 6 C-1.34 4.02 -0.68 2.04 0 0 Z " fill="#141414" transform="translate(1198,847)"/>
<path d="M0 0 C3.33333333 3.33333333 6.66666667 6.66666667 10 10 C9.071875 10.53625 8.14375 11.0725 7.1875 11.625 C3.75983521 14.17894631 2.5962315 16.09810078 1 20 C-1 19 -1 19 -2.25 16.6875 C-4.3604498 13.44645209 -6.71311833 11.972129 -10 10 C-5.25 6 -5.25 6 -3 6 C-2.690625 5.195625 -2.38125 4.39125 -2.0625 3.5625 C-1 1 -1 1 0 0 Z " fill="#121212" transform="translate(1071,888)"/>
<path d="M0 0 C3.33333333 3.33333333 6.66666667 6.66666667 10 10 C5.25 14 5.25 14 3 14 C2.34 15.65 1.68 17.3 1 19 C0.52949219 18.59007812 0.05898437 18.18015625 -0.42578125 17.7578125 C-1.04839844 17.21898437 -1.67101563 16.68015625 -2.3125 16.125 C-2.92738281 15.59132813 -3.54226563 15.05765625 -4.17578125 14.5078125 C-6.13498212 12.8359553 -6.13498212 12.8359553 -9 11 C-8.67 10.01 -8.34 9.02 -8 8 C-7.401875 7.731875 -6.80375 7.46375 -6.1875 7.1875 C-3.06423954 5.49201575 -1.81732653 2.98560787 0 0 Z " fill="#131313" transform="translate(1197,798)"/>
<path d="M0 0 C1.9375 0.75 1.9375 0.75 4 2 C4.12375 2.66 4.2475 3.32 4.375 4 C4.58125 4.66 4.7875 5.32 5 6 C7.99615946 7.3045656 7.99615946 7.3045656 11 8 C11 8.66 11 9.32 11 10 C9 11.33333333 7 12.66666667 5 14 C3.97676564 15.31558703 2.96873032 16.64377755 2 18 C1.34 18 0.68 18 0 18 C-0.433125 17.236875 -0.86625 16.47375 -1.3125 15.6875 C-3.20048159 12.68071451 -4.88138542 11.60145073 -8 10 C-7.67 9.01 -7.34 8.02 -7 7 C-6.38125 6.71125 -5.7625 6.4225 -5.125 6.125 C-2.32079102 4.64041877 -1.45276712 2.76025753 0 0 Z " fill="#111111" transform="translate(895,976)"/>
<path d="M0 0 C0.99 0 1.98 0 3 0 C3.5775 1.11375 4.155 2.2275 4.75 3.375 C6.42260202 6.33192143 7.64982242 7.92315721 11 9 C11 9.66 11 10.32 11 11 C9.01399663 12.3540932 7.01182457 13.68457624 5 15 C3.63113049 16.29682374 2.2830709 17.61823134 1 19 C-2 15.25 -2 15.25 -2 13 C-3.98 12.34 -5.96 11.68 -8 11 C-7.67 10.01 -7.34 9.02 -7 8 C-6.38125 7.731875 -5.7625 7.46375 -5.125 7.1875 C-2.07704451 5.48423076 -1.35923152 3.1262325 0 0 Z " fill="#131313" transform="translate(816,1189)"/>
<path d="M0 0 C1.86513897 1.86513897 3.71982023 3.73737683 5.5625 5.625 C7.75959819 8.00641642 7.75959819 8.00641642 10 9 C10 9.66 10 10.32 10 11 C8.6078125 11.5878125 8.6078125 11.5878125 7.1875 12.1875 C3.74078196 14.14739849 2.83913242 15.59760503 1 19 C0.34 19 -0.32 19 -1 19 C-1.433125 18.236875 -1.86625 17.47375 -2.3125 16.6875 C-4.20048159 13.68071451 -5.88138542 12.60145073 -9 11 C-8.67 10.01 -8.34 9.02 -8 8 C-7.401875 7.731875 -6.80375 7.46375 -6.1875 7.1875 C-3.06423954 5.49201575 -1.81732653 2.98560787 0 0 Z " fill="#111111" transform="translate(912,1042)"/>
<path d="M0 0 C2.93171472 2.54931715 2.93171472 2.54931715 3.3125 5.0625 C3.6528125 6.0215625 3.6528125 6.0215625 4 7 C6.99615946 8.3045656 6.99615946 8.3045656 10 9 C10 9.66 10 10.32 10 11 C9.071875 11.598125 8.14375 12.19625 7.1875 12.8125 C3.98984498 15.00696913 2.70653139 16.58693721 1 20 C-1.0245738 18.06745228 -2.42105792 16.36841312 -4 14 C-4.99 14 -5.98 14 -7 14 C-7.3125 11.3125 -7.3125 11.3125 -7 8 C-4.625 5.3125 -4.625 5.3125 -2 3 C-1.34 2.01 -0.68 1.02 0 0 Z " fill="#121212" transform="translate(1083,935)"/>
<path d="M0 0 C0 0.33 0 0.66 0 1 C13.365 1.495 13.365 1.495 27 2 C27 2.33 27 2.66 27 3 C26.04971924 3.01458252 25.09943848 3.02916504 24.12036133 3.04418945 C0.48420152 3.30738863 0.48420152 3.30738863 -22.95581055 6.0715332 C-26.66347986 6.72722272 -29.39195729 7.08874972 -33 6 C-8.13961039 -0.3538961 -8.13961039 -0.3538961 0 0 Z " fill="#1E1E1E" transform="translate(1229,642)"/>
<path d="M0 0 C0 3 0 3 -1.1688385 4.59255981 C-5.51115613 8.63914688 -8.59865135 9.66458966 -14.50157166 9.52731323 C-15.89104759 9.44805099 -15.89104759 9.44805099 -17.30859375 9.3671875 C-18.27531509 9.33650177 -19.24203644 9.30581604 -20.23805237 9.27420044 C-23.30642049 9.17016061 -26.37098241 9.02325954 -29.4375 8.875 C-31.52528589 8.79663719 -33.61317934 8.72108609 -35.70117188 8.6484375 C-40.80260118 8.46481883 -45.90105679 8.24276154 -51 8 C-51 7.67 -51 7.34 -51 7 C-37.14 6.67 -23.28 6.34 -9 6 C-8.67 5.34 -8.34 4.68 -8 4 C-6.68 4 -5.36 4 -4 4 C-1.74934898 2.08333079 -1.74934898 2.08333079 0 0 Z " fill="#2A2A2A" transform="translate(1181,1132)"/>
<path d="M0 0 C0 3 0 3 -1.54467773 4.86938477 C-2.25052002 5.55315186 -2.9563623 6.23691895 -3.68359375 6.94140625 C-4.44607422 7.68970703 -5.20855469 8.43800781 -5.99414062 9.20898438 C-6.80044922 9.98564453 -7.60675781 10.76230469 -8.4375 11.5625 C-10.02160267 13.10334203 -11.60373603 14.64621208 -13.18359375 16.19140625 C-14.24404907 17.21536499 -14.24404907 17.21536499 -15.32592773 18.26000977 C-17.0784165 19.90862027 -17.0784165 19.90862027 -18 22 C-18.66 22 -19.32 22 -20 22 C-20.33 22.66 -20.66 23.32 -21 24 C-21.66 23.34 -22.32 22.68 -23 22 C-19.47299715 18.3738002 -15.90032831 14.86075245 -12.0625 11.5625 C-7.82750398 7.91592808 -3.90306016 3.99648447 0 0 Z " fill="#2B2B2B" transform="translate(886,828)"/>
<path d="M0 0 C0 0.33 0 0.66 0 1 C-3.41481264 1.53350857 -6.83203896 2.04958186 -10.25 2.5625 C-11.70212891 2.78969727 -11.70212891 2.78969727 -13.18359375 3.02148438 C-14.58544922 3.2293457 -14.58544922 3.2293457 -16.015625 3.44140625 C-16.87446289 3.57232666 -17.73330078 3.70324707 -18.61816406 3.83813477 C-21.01042114 4.0007082 -22.72802578 3.71976511 -25 3 C-8.29157175 -1.77676538 -8.29157175 -1.77676538 0 0 Z " fill="#585858" transform="translate(1221,645)"/>
<path d="M0 0 C2.79872437 2.52788007 4.45773019 4.20411134 5 8 C4.34 8 3.68 8 3 8 C2.67 8.99 2.34 9.98 2 11 C1.34 7.37 0.68 3.74 0 0 Z " fill="#BBBBBB" transform="translate(766,1188)"/>
<path d="M0 0 C1.9375 0.75 1.9375 0.75 4 2 C4.875 4 4.875 4 5 6 C4.34 6.66 3.68 7.32 3 8 C0 2.25 0 2.25 0 0 Z " fill="#D5D5D5" transform="translate(1077,948)"/>
<path d="M0 0 C0.66 0.33 1.32 0.66 2 1 C-0.31 3.31 -2.62 5.62 -5 8 C-5.66 7.34 -6.32 6.68 -7 6 C-4.69 4.02 -2.38 2.04 0 0 Z " fill="#2D2D2D" transform="translate(923,796)"/>
</svg>
